<svg viewBox="0 0 24 24" fill="none" xmlns="http://www.w3.org/2000/svg">
  <path d="M12 4C7.58 4 4 7.58 4 12C4 16.42 7.58 20 12 20C16.42 20 20 16.42 20 12C20 7.58 16.42 4 12 4ZM12 18C8.69 18 6 15.31 6 12C6 8.69 8.69 6 12 6C15.31 6 18 8.69 18 12C18 15.31 15.31 18 12 18Z" fill="currentColor"/>
  <path d="M12 8C9.79 8 8 9.79 8 12C8 14.21 9.79 16 12 16C14.21 16 16 14.21 16 12C16 9.79 14.21 8 12 8ZM12 14C10.9 14 10 13.1 10 12C10 10.9 10.9 10 12 10C13.1 10 14 10.9 14 12C14 13.1 13.1 14 12 14Z" fill="currentColor"/>
  <circle cx="12" cy="4.5" r="1" fill="currentColor"/>
  <circle cx="12" cy="19.5" r="1" fill="currentColor"/>
  <circle cx="4.5" cy="12" r="1" fill="currentColor"/>
  <circle cx="19.5" cy="12" r="1" fill="currentColor"/>
</svg>
