<svg viewBox="0 0 11 20" fill="none" xmlns="http://www.w3.org/2000/svg">
<path fill-rule="evenodd" clip-rule="evenodd" d="M0.0274779 3.38867C0.0425464 5.25246 0.0648324 9.2207 0.0769463 12.207C0.0890602 15.1934 0.110291 18.1685 0.124136 18.8184L0.149292 20H2.02272H3.89615L3.89653 19.5801C3.89789 18.1748 4.08673 15.3209 4.34171 12.8516C4.54296 10.9029 4.96239 7.64832 5.20006 6.19141L5.2765 5.72266L5.38198 5.9375C5.99498 7.18605 6.47591 10.8757 6.74402 16.3867C6.7785 17.0957 6.81965 18.1723 6.83548 18.7793L6.86423 19.8828H8.85753H10.8508L10.876 18.5449C10.8899 17.8091 10.9111 14.8779 10.9232 12.0312C10.9353 9.18457 10.9575 5.31301 10.9726 3.42773L11 0H5.5H0L0.0274779 3.38867Z" fill="currentColor"/>
</svg>
