<svg viewBox="0 0 40 40" fill="none" xmlns="http://www.w3.org/2000/svg">
<path fill-rule="evenodd" clip-rule="evenodd" d="M17.4284 13.0372C16.101 13.164 14.7368 13.4965 13.705 13.9446C12.8562 14.3133 12.2252 14.7293 11.6999 15.2667C10.1963 16.8046 9.71059 18.9447 10.1619 22.0425C10.2589 22.7079 10.4206 23.4409 10.4955 23.5542C10.5932 23.7021 10.7191 23.728 11.3404 23.728H11.9316L12.2078 23.5396C12.3597 23.436 12.6862 23.2424 12.9333 23.1094C13.1804 22.9764 13.3881 22.8623 13.395 22.856C13.4018 22.8496 13.3348 22.6204 13.2462 22.3466C12.3787 19.6685 12.3174 17.6252 13.0604 16.153C13.3571 15.5649 13.9134 14.9472 14.4848 14.5714C15.0525 14.1979 16.1242 13.7681 16.3484 13.8239C16.5332 13.8699 16.6447 14.0148 16.6447 14.2087C16.6447 14.4726 16.5566 14.551 16.0745 14.7161C15.2928 14.984 14.8146 15.274 14.3533 15.7602C13.9045 16.2332 13.6856 16.6316 13.5185 17.2799C13.2589 18.2866 13.3267 19.5005 13.7307 21.0793C13.823 21.4398 14.1369 22.4522 14.166 22.4829C14.1734 22.4906 14.4044 22.4004 14.6795 22.2823C17.8757 20.9103 22.3755 19.5881 24.8219 19.3021C25.1854 19.2596 25.2041 19.253 25.1841 19.1737C25.1724 19.1277 24.8983 18.2391 24.5749 17.199C24.1593 15.8619 23.9406 15.2194 23.8287 15.006C23.5522 14.4789 23.022 13.9874 22.4546 13.7323C21.8106 13.4427 20.7709 13.1653 19.9146 13.0547C19.4165 12.9904 18.0215 12.9805 17.4284 13.0372ZM25.4154 20.0541C23.1866 20.2447 19.4673 21.2597 15.9976 22.6244C14.7358 23.1207 13.1104 23.8718 13.0344 23.9937C12.9955 24.0561 13.9106 24.8906 14.5155 25.3443C15.5395 26.1122 16.5095 26.6107 17.4929 26.8742C17.9363 26.9931 17.9825 26.9977 18.7348 26.9999C19.6002 27.0023 19.7926 26.9735 20.571 26.7251C21.0763 26.5638 22.0039 26.129 22.583 25.7821C22.8086 25.6469 23.4647 25.2243 24.041 24.8431C25.9968 23.5491 26.827 23.128 27.7305 22.9718C28.2384 22.8839 28.4521 22.8942 28.595 23.0135C28.7448 23.1385 28.7858 23.3252 28.6998 23.4902C28.6179 23.6473 28.4536 23.728 28.2156 23.728C27.8379 23.728 27.2894 23.9014 26.6265 24.2304C26.2827 24.401 25.9593 24.5734 25.9078 24.6133L25.8142 24.6861L26.154 24.9715C26.8207 25.5316 27.3489 25.8875 27.818 26.0928C28.1224 26.226 28.6144 26.2268 28.8858 26.0945C29.4783 25.8058 29.9466 25.0185 29.9953 24.2292C30.0332 23.6162 29.8387 22.9782 29.4965 22.5925C29.3445 22.4212 29.0159 22.193 26.5874 20.5717L25.767 20.024L25.4154 20.0541Z" fill="currentColor"/>
</svg>
