<svg viewBox="0 0 24 24" fill="none" xmlns="http://www.w3.org/2000/svg">
  <path d="M12 4C12 3.45 11.55 3 11 3C10.45 3 10 3.45 10 4V6C10 6 10 6.5 10.5 6.5C11 6.5 11 6 11 6V4.5C11 4.22 11.22 4 11.5 4C11.78 4 12 4.22 12 4.5V4Z" fill="currentColor"/>
  <path d="M11 7C8.24 7 6 9.24 6 12C6 14.76 8.24 17 11 17C13.76 17 16 14.76 16 12C16 9.24 13.76 7 11 7ZM11 15C9.34 15 8 13.66 8 12C8 10.34 9.34 9 11 9C12.66 9 14 10.34 14 12C14 13.66 12.66 15 11 15Z" fill="currentColor"/>
  <circle cx="11" cy="18.5" r="1.5" fill="currentColor"/>
</svg>
