<svg viewBox="0 0 14 32" fill="none" xmlns="http://www.w3.org/2000/svg">
<path d="M6.90129 18.2948C6.85414 18.85 7.23102 21.7889 7.42551 22.9412C7.5181 23.4872 7.77199 24.3766 7.68064 24.8489C7.55021 25.5071 7.51252 26.3589 7.58433 26.8549C7.62961 27.1561 7.77215 28.5453 7.5682 29.0534C7.46149 29.3198 7.26592 30.6853 7.26592 30.6853C6.75643 31.9716 7.04398 31.9083 7.04398 31.9083C7.20171 32.1019 7.47188 31.9235 7.47188 31.9235C7.67769 32.0547 7.82023 31.8924 7.82023 31.8924C7.99688 32.0386 8.20284 31.8744 8.20284 31.8744C8.42478 31.9896 8.63059 31.7771 8.63059 31.7771C8.75808 31.8413 8.78926 31.7602 8.78926 31.7602C9.17172 31.7357 8.57584 30.5117 8.57584 30.5117C8.43316 29.4124 8.71745 28.8006 8.71745 28.8006C9.64863 26.0391 9.69594 25.3063 9.32371 24.2656C9.21887 23.9652 9.19235 23.8462 9.24058 23.7158C9.35209 23.4148 9.27082 22.2039 9.40684 21.7231C9.66926 20.7958 9.92811 18.4441 10.063 17.3468C10.2444 15.8688 9.4208 13.887 9.4208 13.887C9.24042 13.0805 9.50486 10.2071 9.50486 10.2071C9.87414 10.7817 9.86003 11.796 9.86003 11.796C9.8014 12.8598 10.7194 14.4857 10.7194 14.4857C11.1605 15.1575 11.3275 15.795 11.3275 15.8423C11.3275 16.0358 11.2852 16.5044 11.2852 16.5044L11.3021 16.9124C11.3097 17.0163 11.3682 17.3741 11.3587 17.5471C11.2898 18.6113 11.4589 18.4111 11.4589 18.4111C11.6016 18.4111 11.7584 17.5547 11.7584 17.5547C11.7584 17.7755 11.7044 18.4367 11.8235 18.6861C11.9661 18.9835 12.0709 18.6351 12.0728 18.5651C12.1104 17.21 12.1919 17.5651 12.1919 17.5651C12.2711 18.6644 12.3685 18.9127 12.5432 18.8267C12.6755 18.7636 12.5545 17.5075 12.5545 17.5075C12.7811 18.2537 12.9529 18.3725 12.9529 18.3725C13.3269 18.6351 13.0956 17.9098 13.0436 17.7662C12.767 17.0031 12.7584 16.7387 12.7584 16.7387C13.1041 17.4244 13.3647 17.3989 13.3647 17.3989C13.7019 17.2913 13.07 16.3204 12.6998 15.8553C12.5109 15.6183 12.2672 15.301 12.1965 15.1125C12.0813 14.7934 11.9943 13.7673 11.9943 13.7673C11.9594 12.5564 11.6601 12.0305 11.6601 12.0305C11.1482 11.2113 11.0519 9.68316 11.0519 9.68316L11.0293 7.10317C10.8498 5.34331 9.55309 5.33059 9.55309 5.33059C8.24239 5.13548 8.06 4.71208 8.06 4.71208C7.78238 4.31255 7.94104 3.5467 7.94104 3.5467C8.17136 3.35934 8.26023 2.86196 8.26023 2.86196C8.64269 2.56867 8.62392 2.13953 8.44727 2.14418C8.30552 2.1479 8.33762 2.0305 8.33762 2.0305C8.57678 0.09864 6.86174 0 6.86174 0H6.59994C6.59994 0 4.88413 0.09864 5.12298 2.03003C5.12298 2.03003 5.15508 2.14759 5.01209 2.14371C4.8359 2.13906 4.81946 2.56821 5.20053 2.86149C5.20053 2.86149 5.28924 3.35872 5.51971 3.54623C5.51971 3.54623 5.67837 4.31209 5.40075 4.71161C5.40075 4.71161 5.21898 5.13502 3.90766 5.33013C3.90766 5.33013 2.60874 5.34285 2.43209 7.1027L2.40759 9.6827C2.40759 9.6827 2.31314 11.2108 1.79931 12.03C1.79931 12.03 1.50137 12.5561 1.46694 13.7668C1.46694 13.7668 1.37962 14.7929 1.26485 15.1121C1.1949 15.2996 0.951407 15.6169 0.760952 15.8548C0.387484 16.319 -0.240183 17.2879 0.095596 17.3985C0.095596 17.3985 0.35755 17.4239 0.70186 16.7382C0.70186 16.7382 0.694726 17.0008 0.418503 17.7657C0.364219 17.9075 0.133284 18.6327 0.507372 18.372C0.507372 18.372 0.680612 18.2531 0.905809 17.5071C0.905809 17.5071 0.78499 18.7632 0.919457 18.8263C1.09518 18.9124 1.19103 18.6639 1.27028 17.5646C1.27028 17.5646 1.35155 17.2096 1.38924 18.5646C1.3911 18.6346 1.49362 18.9831 1.63677 18.6856C1.75759 18.4362 1.7033 17.7761 1.7033 17.5542C1.7033 17.5542 1.85824 18.4106 2.0031 18.4106C2.0031 18.4106 2.17355 18.6109 2.1036 17.5466C2.09228 17.3727 2.15323 17.0159 2.16083 16.912L2.17727 16.5039C2.17727 16.5039 2.13478 16.0364 2.13478 15.8418C2.13478 15.7936 2.30197 15.1571 2.7429 14.4852C2.7429 14.4852 3.65997 12.8586 3.60088 11.7955C3.60088 11.7955 3.58817 10.7812 3.95745 10.2066C3.95745 10.2066 4.21956 13.0799 4.04197 13.8865C4.04197 13.8865 3.21702 15.8683 3.39895 17.3464C3.53295 18.4466 3.79134 20.7952 4.05438 21.7227C4.19179 22.2025 4.11052 23.413 4.22064 23.7153C4.27027 23.8467 4.24422 23.9677 4.13751 24.2651C3.7673 25.3058 3.81445 26.0388 4.74563 28.8001C4.74563 28.8001 5.03225 29.4119 4.88739 30.5112C4.88739 30.5112 4.29245 31.7353 4.67352 31.7598C4.67352 31.7598 4.70329 31.8409 4.83218 31.7767C4.83218 31.7767 5.03799 31.9891 5.26039 31.8739C5.26039 31.8739 5.46636 32.0383 5.64239 31.8919C5.64239 31.8919 5.78353 32.0543 5.98934 31.9231C5.98934 31.9231 6.25951 32.1053 6.42003 31.9079C6.42003 31.9079 6.70525 31.9711 6.19747 30.6848C6.19747 30.6848 6.00298 29.3211 5.89581 29.0529C5.6914 28.545 5.83579 27.1528 5.87937 26.8544C5.94963 26.3556 5.91194 25.5059 5.78353 24.8484C5.68954 24.3773 5.94405 23.4876 6.03804 22.9408C6.23113 21.7895 6.60956 18.8505 6.56226 18.2943L6.71859 18.3492C6.83057 18.3495 6.90129 18.2948 6.90129 18.2948Z" fill="currentColor"/>
</svg>
