<svg viewBox="0 0 40 40" fill="none" xmlns="http://www.w3.org/2000/svg">
<path fill-rule="evenodd" clip-rule="evenodd" d="M11.9286 16.5381C11.3648 16.5686 11.1733 16.6111 10.8273 16.7827C10.5506 16.9198 10.1455 17.2988 10.0595 17.5009C10.0155 17.6044 10.0004 17.8091 10.0004 18.3062C10.0004 19.0964 9.96228 19.019 10.5966 19.5145L11.0299 19.8529L11.1433 20.7298C11.2056 21.212 11.2818 21.7026 11.3126 21.8199C11.4575 22.3728 11.924 22.9498 12.4412 23.2157C12.9916 23.4987 13.0043 23.5002 14.8408 23.4985L16.4878 23.4969L16.8415 23.3895C17.4455 23.2061 17.9139 22.9291 18.2973 22.5285C18.7845 22.0194 18.9982 21.5753 19.1856 20.6824C19.2607 20.3246 19.3415 20.0202 19.3651 20.0058C19.4936 19.9278 20.5122 19.9266 20.6361 20.0042C20.6576 20.0177 20.7329 20.3032 20.8034 20.6388C20.8739 20.9742 20.982 21.3761 21.0436 21.5318C21.3136 22.2147 21.8939 22.8277 22.5828 23.1575C23.2781 23.4905 23.3507 23.5 25.2045 23.5C26.6496 23.5 26.8353 23.4927 27.0502 23.4276C27.7965 23.2014 28.3947 22.6535 28.6383 21.9729C28.6989 21.8036 28.9603 20.1289 28.9603 19.9099C28.9603 19.8867 29.1783 19.6937 29.4447 19.481C29.7174 19.2634 29.947 19.0485 29.9699 18.9895C29.9938 18.9283 30.0053 18.606 29.9977 18.2142L29.9846 17.5436L29.8575 17.3638C29.5872 16.9817 29.1537 16.7052 28.6438 16.5895C28.2339 16.4965 23.1103 16.4637 22.5985 16.5508C21.9682 16.6581 21.3512 17.0248 20.9992 17.5013L20.8847 17.6562L19.9988 17.6591L19.113 17.6619L19.0346 17.5373C18.8809 17.2932 18.4342 16.9277 18.0929 16.7669C17.5449 16.5087 17.4393 16.5004 14.7806 16.506C13.4881 16.5087 12.2047 16.5232 11.9286 16.5381Z" fill="currentColor"/>
</svg>
