<svg viewBox="0 0 24 24" fill="none" xmlns="http://www.w3.org/2000/svg">
<path d="M12.3516 21.8906H1.80469C1.22223 21.8906 0.75 22.3629 0.75 22.9453C0.75 23.5278 1.22223 24 1.80469 24H12.3516C12.934 24 13.4062 23.5278 13.4062 22.9453C13.4062 22.3629 12.934 21.8906 12.3516 21.8906Z" fill="currentColor"/>
<path d="M20.0255 7.07812H16.2188V7.74335L14.8125 7.2746V5.53583C16.0245 5.22327 16.9219 4.12061 16.9219 2.8125C16.9219 1.26141 15.6605 0 14.1094 0C12.5583 0 11.2969 1.26141 11.2969 2.8125H12.7031C12.7031 2.03723 13.3341 1.40625 14.1094 1.40625C14.8846 1.40625 15.5156 2.03723 15.5156 2.8125C15.5156 3.58777 14.8846 4.21875 14.1094 4.21875H13.4062V7.2746L12 7.74335V7.07812H8.19324L4.96875 10.3026V15.5156H7.78125V16.9688H12.3516C13.7084 16.9688 14.8125 18.0729 14.8125 19.4297C14.8125 20.1185 14.5261 20.7404 14.0684 21.1875C14.5261 21.6346 14.8125 22.2565 14.8125 22.9453C14.8125 23.3242 14.7193 23.679 14.5657 24H20.4375V15.5156H23.25V10.3026L20.0255 7.07812ZM14.1094 11.2969C12.9586 11.2969 12.0236 10.37 12.0037 9.22394L14.1094 8.52209L16.2151 9.22394C16.1951 10.37 15.2602 11.2969 14.1094 11.2969Z" fill="currentColor"/>
<path d="M12.3516 18.375H1.80469C1.22223 18.375 0.75 18.8472 0.75 19.4297C0.75 20.0121 1.22223 20.4844 1.80469 20.4844H12.3516C12.934 20.4844 13.4062 20.0121 13.4062 19.4297C13.4062 18.8472 12.934 18.375 12.3516 18.375Z" fill="currentColor"/>
</svg>
