<svg viewBox="0 0 28 28" fill="none" xmlns="http://www.w3.org/2000/svg">
<path d="M22.7446 22.2133C22.7303 21.8974 22.7159 21.5959 22.7015 21.28C22.6441 20.0021 22.5149 18.7385 22.2277 17.4892C22.041 16.6851 21.7969 15.8954 21.3805 15.1774C21.122 14.7323 20.8062 14.3303 20.3754 14.0287C19.5713 13.4831 18.7241 13.4974 17.8626 13.8564C17.5179 14.0144 17.1877 14.201 16.8287 14.359C14.9477 15.1774 13.0236 15.2636 11.0708 14.7179C10.0369 14.4308 9.07487 14 8.19897 13.3969C8.12718 13.3538 8.06974 13.3395 7.98359 13.3826C6.79179 13.8851 6.07385 14.8041 5.68615 15.9959C5.42769 16.7713 5.34154 17.5754 5.32718 18.3938C5.31282 19.959 5.57128 21.4954 6.00205 23.0031C6.01641 23.0462 6.03077 23.1036 6.04513 23.1467C6.04513 23.161 6.04513 23.161 6.03077 23.2041C5.98769 23.1467 5.95897 23.1179 5.93026 23.0892C5.38461 22.3282 5.02564 21.4954 4.7241 20.6195C4.20718 19.0687 3.94872 17.4749 3.81949 15.8523C3.79077 15.5077 3.77641 15.1487 3.74769 14.8041C3.74769 14.7754 3.73333 14.7467 3.73333 14.6892C3.54667 14.9046 3.37436 15.1056 3.17333 15.3354C3.14462 15.0769 3.1159 14.8615 3.10154 14.6462C3.01538 13.6267 3.05846 12.6215 3.38872 11.6451C3.93436 10.0082 5.06872 8.94564 6.69128 8.4C6.90667 8.3282 7.13641 8.28513 7.36615 8.22769C7.40923 8.21333 7.46667 8.1559 7.46667 8.12718C7.61026 6.92103 8.29949 6.13128 9.33333 5.6C10.1087 5.19795 10.9415 4.98256 11.8031 4.86769C12.0903 4.82462 12.3774 4.81026 12.6646 4.78154H12.8226C12.679 4.89641 12.5067 4.98256 12.3774 5.12615C12.2338 5.2841 12.2482 5.48513 12.3344 5.68615C12.3631 5.67179 12.3918 5.67179 12.4205 5.65744C13.5979 5.02564 14.8759 4.83897 16.1826 4.95385C17.3887 5.05436 18.5374 5.38461 19.6431 5.85846C19.6862 5.87282 19.7436 5.90154 19.7867 5.94462C18.9251 5.80103 18.1067 5.97333 17.3026 6.26051C17.4031 6.27487 17.5179 6.30359 17.6185 6.31795C20.3467 6.83487 22.2851 8.4 23.5344 10.8554C24.1805 12.119 24.5538 13.4831 24.7549 14.8759C24.8267 15.3785 24.8697 15.8954 24.9128 16.4123C24.9272 16.5272 24.9128 16.6421 24.9128 16.7426C24.7405 16.2974 24.5682 15.8379 24.3959 15.3785C24.3815 15.3785 24.3672 15.3785 24.3528 15.3928C24.5395 17.8338 23.9938 20.1026 22.7877 22.2277C22.7733 22.2277 22.759 22.2277 22.7446 22.2133Z" fill="currentColor"/>
</svg>
