<svg viewBox="0 0 11 26" fill="none" xmlns="http://www.w3.org/2000/svg">
<path d="M8.38354 6.34085H2.26139C1.11363 6.34224 0.183495 7.27238 0.182106 8.42014V15.9734C0.182106 16.378 0.510029 16.7058 0.914491 16.7058C1.319 16.7058 1.64688 16.3779 1.64688 15.9734V9.78752C1.64688 9.56285 1.82903 9.38069 2.0537 9.38069C2.27838 9.38069 2.46053 9.56285 2.46053 9.78752V24.5898C2.48395 25.2673 3.0522 25.7976 3.72971 25.7742C4.37439 25.7519 4.89183 25.2345 4.91412 24.5898V16.136C4.91412 15.9114 5.09628 15.7292 5.32095 15.7292C5.54562 15.7292 5.72778 15.9114 5.72778 16.136V24.5898C5.7512 25.2674 6.31944 25.7976 6.99696 25.7742C7.64163 25.752 8.15908 25.2345 8.18136 24.5898V9.78752C8.18136 9.56285 8.36352 9.38069 8.58819 9.38069C8.81286 9.38069 8.99502 9.56285 8.99502 9.78752V15.9734C8.99502 16.3779 9.32294 16.7058 9.7274 16.7058C10.1319 16.7058 10.4598 16.3779 10.4598 15.9734V8.4205C10.4587 7.27372 9.53032 6.34389 8.38354 6.34085Z" fill="currentColor"/>
<path d="M5.32244 4.95437C6.64008 4.95437 7.70824 3.88621 7.70824 2.56857C7.70824 1.25093 6.64008 0.182775 5.32244 0.182775C4.0048 0.182775 2.93664 1.25093 2.93664 2.56857C2.93664 3.88621 4.0048 4.95437 5.32244 4.95437Z" fill="currentColor"/>
</svg>
