<svg viewBox="0 0 20 20" fill="none" xmlns="http://www.w3.org/2000/svg">
<path fill-rule="evenodd" clip-rule="evenodd" d="M9.21875 0.356484C7.10938 0.526797 5.19035 1.49543 3.97887 3.00137L3.74375 3.29367L4.39063 3.94176C4.92617 4.47828 5.04844 4.62195 5.1009 4.77633C5.18879 5.03504 5.15309 5.15652 4.98949 5.15539C4.72703 5.15359 4.52906 5.01387 3.89789 4.38492C3.56027 4.04848 3.27613 3.78121 3.26645 3.79094C3.21586 3.84176 2.9523 4.34254 2.8098 4.65859C2.24617 5.90863 1.875 7.76801 1.875 9.3416V9.6875L2.58789 9.68836C3.35492 9.6893 3.51547 9.72285 3.68977 9.91863C3.78664 10.0275 3.74445 10.107 3.53246 10.2148C3.3977 10.2834 3.28684 10.2945 2.62695 10.305L1.875 10.3171V10.5081C1.875 10.7712 1.97969 11.5464 2.0698 11.9504C2.25711 12.7905 2.60566 13.8173 2.97234 14.6094C3.1307 14.9515 3.53887 15.739 3.57848 15.7789C3.58785 15.7883 3.88953 15.5044 4.24895 15.1479C4.83984 14.5617 4.92234 14.4938 5.1116 14.4382C5.3627 14.3644 5.46918 14.4014 5.46789 14.5619C5.46594 14.8043 5.31387 15.0147 4.68484 15.6459L4.06063 16.2723L4.40336 16.7004C5.82863 18.4804 7.53363 19.4931 9.4043 19.6707L9.6875 19.6976L9.68836 18.9796C9.68926 18.2104 9.72281 18.047 9.91492 17.8761C10.0303 17.7735 10.1053 17.8183 10.2159 18.056C10.3066 18.2507 10.3118 18.3 10.3121 18.9792L10.3125 19.6967L10.6152 19.6696C12.4829 19.5023 14.2414 18.4391 15.6836 16.6052L15.9418 16.2768L15.3002 15.6286C14.741 15.0638 14.6499 14.9542 14.592 14.7762C14.4792 14.4298 14.5579 14.3411 14.8913 14.4391C15.077 14.4936 15.1634 14.565 15.7534 15.1502C16.2804 15.6729 16.4166 15.7892 16.4473 15.7421C16.6153 15.4843 17.0282 14.6909 17.2196 14.2578C17.7393 13.0823 18.049 11.9135 18.1109 10.8939L18.1368 10.4688L17.418 10.4684C16.7439 10.468 16.6868 10.4622 16.5001 10.3752C16.2699 10.2681 16.2174 10.1795 16.3174 10.067C16.4838 9.87969 16.652 9.84551 17.4121 9.84461L18.125 9.84375V9.44141C18.125 8.63609 17.9825 7.3309 17.8086 6.54297C17.6861 5.98797 17.4815 5.32965 17.2877 4.86715C17.0979 4.4143 16.7722 3.78906 16.726 3.78906C16.7107 3.78906 16.4348 4.05457 16.1128 4.3791C15.6998 4.79531 15.4698 4.99664 15.332 5.06234C14.9923 5.22437 14.8101 5.16645 14.8645 4.91371C14.9174 4.66832 15.0111 4.54746 15.6355 3.91871L16.2633 3.28664L16.04 3.01371C15.7102 2.61066 15.0673 2.00887 14.6469 1.70973C14.4436 1.56512 14.0313 1.32328 13.7305 1.1723C12.7413 0.67582 11.8123 0.434922 10.5176 0.339141L10.3125 0.323984L10.3121 1.03113C10.3118 1.69516 10.306 1.75055 10.218 1.93961C10.1268 2.13555 10.0109 2.22297 9.9182 2.1657C9.89434 2.15094 9.83281 2.04875 9.78152 1.93855C9.69399 1.75059 9.68824 1.69445 9.68789 1.02539C9.68766 0.633281 9.6743 0.314961 9.6582 0.31793C9.64211 0.320938 9.44434 0.338281 9.21875 0.356484ZM6.15234 6.3048C5.41625 6.44793 4.91133 6.75039 4.66609 7.19516C4.51574 7.46789 4.50723 7.82027 4.64453 8.08594C4.84418 8.47215 5.34961 8.81215 5.95703 8.96883C6.32469 9.06367 7.1002 9.06469 7.47938 8.97078C7.83723 8.88219 8.26047 8.67578 8.47918 8.48328C9.02445 8.00332 9.02445 7.30918 8.47918 6.82922C8.26328 6.63918 7.83746 6.43016 7.49941 6.34828C7.14 6.26121 6.48527 6.24008 6.15234 6.3048ZM12.7148 6.3048C11.9788 6.44793 11.4738 6.75039 11.2286 7.19516C11.0782 7.46789 11.0697 7.82027 11.207 8.08594C11.4067 8.47215 11.9121 8.81215 12.5195 8.96883C12.8872 9.06367 13.6627 9.06469 14.0419 8.97078C14.3997 8.88219 14.823 8.67578 15.0417 8.48328C15.587 8.00332 15.587 7.30918 15.0417 6.82922C14.8258 6.63918 14.4 6.43016 14.0619 6.34828C13.7025 6.26121 13.0478 6.24008 12.7148 6.3048ZM8.19633 10.2051C8.11535 10.2701 7.95457 11.0957 7.99047 11.2624C8.05375 11.5563 8.18441 11.7057 8.53391 11.8834C9.25332 12.2492 10.6995 12.2549 11.4604 11.8949C11.7573 11.7545 11.9273 11.5792 11.9925 11.3466C12.0395 11.1788 12.0357 11.1124 11.9567 10.7067C11.8636 10.2293 11.8316 10.1562 11.7154 10.1562C11.5755 10.1562 11.5579 10.2814 11.6409 10.6848C11.7362 11.148 11.7373 11.2261 11.6504 11.3733C11.436 11.7364 10.2879 11.9644 9.41137 11.8179C8.73465 11.7047 8.35848 11.5127 8.30102 11.251C8.28707 11.1877 8.31399 10.9484 8.36219 10.7064C8.43195 10.3562 8.43891 10.2636 8.39899 10.2155C8.33922 10.1435 8.27703 10.1403 8.19633 10.2051ZM9.35414 14.119C8.30059 14.2828 7.56953 14.8522 7.6759 15.4261C7.77801 15.9773 8.52883 16.4146 9.57227 16.5306C10.7444 16.6609 11.9824 16.2365 12.2707 15.6055C12.6897 14.688 11.0546 13.8547 9.35414 14.119Z" fill="currentColor"/>
</svg>
