<svg viewBox="0 0 24 24" fill="none" xmlns="http://www.w3.org/2000/svg">
<path d="M21.375 7.5H14.625C14.3526 7.50012 14.0853 7.57456 13.8521 7.71531C13.6188 7.85606 13.4284 8.05778 13.3013 8.29875C12.9233 8.02338 12.4677 7.87502 12 7.87502C11.5323 7.87502 11.0767 8.02338 10.6988 8.29875C10.5716 8.05778 10.3812 7.85606 10.1479 7.71531C9.91468 7.57456 9.64744 7.50012 9.375 7.5H2.625C2.12772 7.5 1.65081 7.69754 1.29917 8.04917C0.947544 8.40081 0.75 8.87772 0.75 9.375V11.25C0.745477 11.6452 0.819985 12.0374 0.969148 12.4034C1.11831 12.7694 1.33912 13.1019 1.6186 13.3814C1.89808 13.6609 2.2306 13.8817 2.59662 14.0309C2.96264 14.18 3.35478 14.2545 3.75 14.25H6.375C8.775 14.25 10.665 11.7113 10.8563 9.375H10.875C10.875 8.97 11.3888 8.625 12 8.625C12.6113 8.625 13.125 8.97 13.125 9.375H13.1438C13.335 11.7113 15.225 14.25 17.625 14.25H20.25C20.6489 14.2507 21.044 14.1717 21.4119 14.0176C21.7799 13.8636 22.1134 13.6376 22.3928 13.3529C22.6723 13.0682 22.892 12.7306 23.0392 12.3598C23.1864 11.989 23.2581 11.5926 23.25 11.1938V9.375C23.25 8.87772 23.0525 8.40081 22.7008 8.04917C22.3492 7.69754 21.8723 7.5 21.375 7.5ZM2.89012 10.7651C2.8194 10.8334 2.72467 10.8712 2.62635 10.8704C2.52803 10.8695 2.43397 10.8301 2.36444 10.7606C2.29491 10.691 2.25548 10.597 2.25462 10.4987C2.25377 10.4003 2.29157 10.3056 2.35988 10.2349L3.48488 9.10987C3.5556 9.04157 3.65033 9.00377 3.74865 9.00462C3.84697 9.00548 3.94103 9.04492 4.01056 9.11444C4.08008 9.18397 4.11952 9.27803 4.12038 9.37635C4.12123 9.47467 4.08343 9.5694 4.01512 9.64013L2.89012 10.7651ZM6.26513 9.64013L4.39012 11.5151C4.3194 11.5834 4.22467 11.6212 4.12635 11.6204C4.02803 11.6195 3.93397 11.5801 3.86444 11.5106C3.79491 11.441 3.75548 11.347 3.75462 11.2487C3.75377 11.1503 3.79157 11.0556 3.85988 10.9849L5.73488 9.10987C5.8056 9.04157 5.90033 9.00377 5.99865 9.00462C6.09697 9.00548 6.19103 9.04492 6.26056 9.11444C6.33008 9.18397 6.36952 9.27803 6.37038 9.37635C6.37123 9.47467 6.33343 9.5694 6.26513 9.64013ZM15.75 10.875C15.6758 10.875 15.6034 10.853 15.5417 10.8118C15.48 10.7706 15.432 10.712 15.4036 10.6435C15.3752 10.575 15.3678 10.4996 15.3823 10.4269C15.3967 10.3541 15.4324 10.2873 15.4849 10.2349L16.6099 9.10987C16.6806 9.04157 16.7753 9.00377 16.8737 9.00462C16.972 9.00548 17.066 9.04492 17.1356 9.11444C17.2051 9.18397 17.2445 9.27803 17.2454 9.37635C17.2462 9.47467 17.2084 9.5694 17.1401 9.64013L16.0151 10.7651C15.9448 10.8355 15.8494 10.875 15.75 10.875ZM19.3901 9.64013L17.5151 11.5151C17.4444 11.5834 17.3497 11.6212 17.2513 11.6204C17.153 11.6195 17.059 11.5801 16.9894 11.5106C16.9199 11.441 16.8805 11.347 16.8796 11.2487C16.8788 11.1503 16.9166 11.0556 16.9849 10.9849L18.8599 9.10987C18.9306 9.04157 19.0253 9.00377 19.1237 9.00462C19.222 9.00548 19.316 9.04492 19.3856 9.11444C19.4551 9.18397 19.4945 9.27803 19.4954 9.37635C19.4962 9.47467 19.4584 9.5694 19.3901 9.64013Z" fill="currentColor"/>
<path d="M22.2709 14.4131C21.6675 14.7986 20.966 15.0023 20.25 15H19.7175L20.3588 15.6413C20.4303 15.7103 20.5256 15.7493 20.625 15.75H22.875C22.9525 15.7497 23.028 15.7254 23.0912 15.6804C23.1543 15.6354 23.2019 15.5719 23.2275 15.4988C23.254 15.4256 23.2567 15.3459 23.2351 15.2711C23.2135 15.1964 23.1689 15.1303 23.1075 15.0825L22.2709 14.4131Z" fill="currentColor"/>
<path d="M1.72275 14.418L0.8925 15.0825C0.831124 15.1303 0.786459 15.1964 0.764904 15.2711C0.743348 15.3459 0.746007 15.4256 0.7725 15.4988C0.798081 15.5719 0.845711 15.6354 0.908837 15.6804C0.971963 15.7254 1.04748 15.7497 1.125 15.75H3.375C3.47442 15.7493 3.56974 15.7103 3.64125 15.6413L4.2825 15H3.75C3.03266 15.0027 2.32941 14.8008 1.72275 14.418Z" fill="currentColor"/>
</svg>
