<svg viewBox="0 0 24 23" fill="none" xmlns="http://www.w3.org/2000/svg">
<path d="M24 12.3978C24 14.2276 23.3865 15.989 22.2969 17.4136C22.2206 17.5134 22.1028 17.5728 21.9772 17.5728H20.0441C19.8598 17.5728 19.7724 17.3432 19.9119 17.2228C21.2568 16.0613 22.1127 14.3486 22.1249 12.4392C22.1473 8.93724 19.3036 6.05097 15.8017 6.02313C12.2632 5.99498 9.37524 8.86574 9.37524 12.3978C9.37524 14.3227 10.2327 16.0508 11.586 17.2207C11.7267 17.3423 11.6426 17.5728 11.4565 17.5728H9.52309C9.39749 17.5728 9.27974 17.5134 9.20344 17.4136C8.1138 15.989 7.50031 14.2276 7.50031 12.3978C7.50031 7.8489 11.2013 4.14795 15.7502 4.14795C20.2992 4.14795 24 7.8489 24 12.3978Z" fill="currentColor"/>
<path d="M21.3207 12.1751C21.4149 14.5833 19.9727 16.6738 17.8966 17.5424C17.8479 17.5628 17.7954 17.5728 17.7426 17.5728C13.3948 17.5728 13.7074 17.5859 13.6037 17.5425C11.5919 16.7008 10.1752 14.7116 10.1752 12.3978C10.1752 9.29518 12.723 6.77627 15.8364 6.82356C18.7819 6.86831 21.2054 9.23153 21.3207 12.1751Z" fill="currentColor"/>
<path d="M6.23733 11.5229C6.46662 11.5229 6.64897 11.7152 6.63677 11.9442L6.15228 21.0252C6.11028 21.8102 5.46179 22.4252 4.6753 22.4252C3.88881 22.4252 3.24031 21.8102 3.19831 21.0252L2.71382 11.9442C2.70162 11.7152 2.88397 11.5229 3.11326 11.5229H6.23733Z" fill="currentColor"/>
<path d="M6.80477 8.79664L6.72237 10.3441C6.71107 10.5565 6.53557 10.7229 6.32292 10.7229H3.02752C2.81487 10.7229 2.63937 10.5565 2.62807 10.3441L2.54567 8.79664C2.53347 8.56769 2.71582 8.37539 2.94512 8.37539H6.40532C6.63462 8.37539 6.81697 8.56769 6.80477 8.79664Z" fill="currentColor"/>
<path d="M8.6887 1.10949C6.21473 -0.369995 3.13876 -0.369995 0.661295 1.11049C0.0988024 1.44648 -0.143195 2.13747 0.0858026 2.75297C0.0954025 2.77762 0.536597 3.7453 2.17393 7.34076C2.23888 7.48341 2.38137 7.57536 2.53812 7.57536H3.39281C3.64521 7.57536 3.83456 7.34441 3.78506 7.09691L3.29126 4.62789C3.24776 4.4114 3.38826 4.2004 3.60526 4.1574C3.82176 4.1139 4.03225 4.2544 4.07575 4.47089L4.63195 7.25376C4.6693 7.44076 4.83349 7.57536 5.02419 7.57536H6.81232C6.96907 7.57536 7.11162 7.48336 7.17656 7.34066C9.42414 2.40457 9.25249 2.78257 9.26469 2.75292C9.49369 2.13747 9.25119 1.44648 8.6887 1.10949ZM5.94323 5.38543C5.90028 5.59683 5.69353 5.74213 5.47124 5.69693C5.25474 5.65293 5.11524 5.44143 5.15974 5.22494L5.45924 3.75895C5.50324 3.54246 5.71473 3.40246 5.93123 3.44696C6.14723 3.49096 6.28723 3.70245 6.24273 3.91895L5.94323 5.38543Z" fill="currentColor"/>
<path d="M22.8 18.3728H8.70019C8.0387 18.3728 7.50021 18.9113 7.50021 19.5728V19.9953C7.50021 21.3337 8.5892 22.4227 9.92768 22.4227H21.5725C22.911 22.4227 24 21.3337 24 19.9953V19.5728C24 18.9113 23.4615 18.3728 22.8 18.3728ZM16.7501 20.7727H14.7501C14.5291 20.7727 14.3501 20.5937 14.3501 20.3727C14.3501 20.1518 14.5291 19.9728 14.7501 19.9728H16.7501C16.9711 19.9728 17.1501 20.1518 17.1501 20.3727C17.1501 20.5937 16.9711 20.7727 16.7501 20.7727Z" fill="currentColor"/>
</svg>
