<svg viewBox="0 0 24 24" fill="none" xmlns="http://www.w3.org/2000/svg">
<path d="M19.9312 8.12906C20.2628 3.53616 15.9212 0.679969 11.7731 0.419484C10.422 0.334641 8.71725 0.446203 7.44098 0.934828C6.1193 1.4408 4.60256 2.47195 3.80072 3.66966C-0.00749981 9.35948 3.39745 14.2879 4.87594 16.5725C6.35447 18.8573 3.80072 23.6064 3.80072 23.6064H14.6874C14.6874 23.6064 14.508 21.7696 14.6874 20.7391C14.8665 19.7088 17.6442 19.8879 18.8092 19.9328C19.9739 19.978 19.705 18.7232 19.6155 17.9167C19.5762 17.5611 19.5884 17.2763 19.8532 17.0298C19.974 16.9176 20.213 16.8327 20.2625 16.6704C20.3236 16.4693 20.0216 16.1665 20.1982 15.9903C20.4217 15.7663 20.3773 15.0044 20.1982 14.8255C20.0186 14.6461 20.3773 14.2879 20.3773 14.2879C20.3773 14.2879 21.5419 14.019 21.903 13.8396C22.2642 13.6605 19.974 10.1662 19.974 10.1662C19.974 10.1662 19.6155 9.89705 19.795 9.09056C19.8613 8.79136 19.907 8.46708 19.9312 8.12906Z" fill="currentColor"/>
</svg>
