<svg viewBox="0 0 24 24" fill="none" xmlns="http://www.w3.org/2000/svg">
  <path d="M12 2C10.34 2 9 3.34 9 5V6.07C6.72 7.07 5.14 9.35 5.14 12C5.14 14.65 6.72 16.93 9 17.93V19C9 20.66 10.34 22 12 22C13.66 22 15 20.66 15 19V17.93C17.28 16.93 18.86 14.65 18.86 12C18.86 9.35 17.28 7.07 15 6.07V5C15 3.34 13.66 2 12 2ZM13 5V5.58C12.68 5.53 12.34 5.5 12 5.5C11.66 5.5 11.32 5.53 11 5.58V5C11 4.45 11.45 4 12 4C12.55 4 13 4.45 13 5ZM12 16.5C9.52 16.5 7.5 14.48 7.5 12C7.5 9.52 9.52 7.5 12 7.5C14.48 7.5 16.5 9.52 16.5 12C16.5 14.48 14.48 16.5 12 16.5ZM13 19C13 19.55 12.55 20 12 20C11.45 20 11 19.55 11 19V18.42C11.32 18.47 11.66 18.5 12 18.5C12.34 18.5 12.68 18.47 13 18.42V19Z" fill="currentColor"/>
  <path d="M12 9V12L14 14" stroke="currentColor" stroke-width="1.5" stroke-linecap="round" stroke-linejoin="round"/>
</svg>
