<svg viewBox="0 0 20 20" fill="none" xmlns="http://www.w3.org/2000/svg">
<path d="M14.4999 3H12.9999V1.5C12.999 0.671997 12.3281 0.000915227 11.4999 -2.98023e-07H8.49994C7.67194 0.000915227 7.00085 0.671997 6.99994 1.5V3H5.49994C4.11987 3.00146 3.00146 4.11987 3 5.49994V8.49994C3.00092 9.32812 3.672 9.99902 4.5 9.99994H6.99994V9.50006C6.99994 9.22394 7.22388 9 7.5 9C7.77612 9 8.00006 9.22394 8.00006 9.50006V9.99994H12V9.50006C12 9.22394 12.2239 9 12.5001 9C12.7762 9 12.9999 9.22394 12.9999 9.50006V9.99994H15.5001C16.3281 9.99902 16.9991 9.32812 17.0001 8.49994V5.49994C16.9986 4.11987 15.8802 3.00146 14.4999 3ZM12 3H8.00006V1.5C8.00043 1.22406 8.224 1.0003 8.49994 0.999939H11.4999C11.7761 1.0003 11.9996 1.22406 12 1.5V3Z" fill="currentColor"/>
<path d="M18.5001 12H18V17.4999C17.9949 17.6523 17.9795 17.8039 17.954 17.954C19.138 17.7352 19.9977 16.7038 20.0001 15.5001V13.5C19.9991 12.672 19.3281 12.0009 18.5001 12Z" fill="currentColor"/>
<path d="M2.00006 12H1.5C0.671997 12.0009 0.000915227 12.672 -2.98023e-07 13.5V15.5001C0.00219697 16.7038 0.86206 17.7352 2.04584 17.954C2.02057 17.8039 2.00519 17.6523 2.00006 17.4999V12Z" fill="currentColor"/>
<path d="M12.9999 11.0001V12.5001C12.9999 12.7762 12.7762 12.9999 12.5001 12.9999C12.2239 12.9999 12 12.7762 12 12.5001V11.0001H8.00006V12.5001C8.00006 12.7762 7.77612 12.9999 7.5 12.9999C7.22388 12.9999 6.99994 12.7762 6.99994 12.5001V11.0001H4.5C3.95728 10.9982 3.4303 10.8181 3 10.4874V17.4999C3.00146 18.8802 4.11987 19.9986 5.49994 20.0001H14.4999C15.8802 19.9986 16.9986 18.8802 17.0001 17.4999V10.4874C16.5698 10.8181 16.0426 10.9982 15.5001 11.0001H12.9999Z" fill="currentColor"/>
</svg>
