<svg viewBox="0 0 20 20" fill="none" xmlns="http://www.w3.org/2000/svg">
<path fill-rule="evenodd" clip-rule="evenodd" d="M4.23188 1.88785C2.32441 2.52641 1.02715 2.98035 0.97543 3.02734C0.928164 3.07031 0.873516 3.14719 0.854023 3.1982C0.814258 3.30219 1.22727 7.15016 1.29098 7.26918C1.31113 7.30688 1.37406 7.37422 1.43082 7.41883C1.53059 7.49734 1.57691 7.5 2.8368 7.5H4.13961L4.14988 13.2024L4.16016 18.9048L4.28785 19.0325L4.41555 19.1602H10H15.5845L15.7121 19.0325L15.8398 18.9048L15.8502 13.2024L15.8607 7.5H17.1633C18.4231 7.5 18.4694 7.49734 18.5692 7.41883C18.6259 7.37422 18.6889 7.30688 18.709 7.26918C18.7731 7.14945 19.1857 3.30207 19.1457 3.1982C19.126 3.14719 19.0684 3.06813 19.0178 3.0225C18.8757 2.89438 12.5508 0.799102 12.4116 0.834023C12.3529 0.84875 12.1798 0.983945 12.0269 1.13445C11.7001 1.45605 11.3508 1.6727 10.918 1.82215C10.6341 1.92012 10.5535 1.9302 10.0391 1.9318C9.44438 1.93367 9.2793 1.90551 8.84969 1.72871C8.5175 1.59203 8.23797 1.40309 7.9791 1.14023C7.72816 0.88543 7.62598 0.818867 7.49281 0.823399C7.44305 0.825078 5.97563 1.3041 4.23188 1.88785Z" fill="currentColor"/>
</svg>
