<svg viewBox="0 0 24 24" fill="none" xmlns="http://www.w3.org/2000/svg">
<path d="M23.2969 0H0.703125C0.314758 0 0 0.314758 0 0.703125V9.58008C0 12.5043 1.08765 15.6381 3.51471 18.0654L7.64594 22.1966C8.80884 23.3595 10.355 24 12.0004 24C13.645 24 15.1912 23.3595 16.3539 22.1966L20.4853 18.0654C22.9138 15.6367 24 12.5017 24 9.58008V0.703125C24 0.314758 23.6852 0 23.2969 0ZM3.08679 3.17688C2.91302 2.82953 3.05383 2.40729 3.40118 2.23352C4.52032 1.67395 5.76416 1.487 6.99847 1.69263L9.8562 2.16888C10.2393 2.23279 10.498 2.59515 10.4343 2.97821C10.3704 3.36108 10.008 3.62 9.62494 3.55609L6.76721 3.07983C5.82806 2.92328 4.88159 3.06555 4.02997 3.49146C3.68372 3.66449 3.26093 3.52533 3.08679 3.17688ZM4.68182 6.32538C4.57654 6.19904 4.51868 6.03973 4.51868 5.87531C4.51868 5.48694 4.83362 5.172 5.2218 5.172C5.44281 5.172 5.64001 5.2738 5.76892 5.43329C6.10199 5.82788 6.58813 6.05383 7.10468 6.05383C7.6225 6.05383 8.10992 5.8266 8.44318 5.43018C8.57208 5.27252 8.76801 5.172 8.98755 5.172C9.37573 5.172 9.69067 5.48676 9.69067 5.87512C9.69067 6.03955 9.633 6.19904 9.52753 6.32556C8.92639 7.04663 8.04327 7.46027 7.10468 7.46027C6.16608 7.46008 5.28296 7.04645 4.68182 6.32538ZM5.9751 17.1218C5.58673 17.1218 5.27197 16.8071 5.27197 16.4187C5.27197 14.4119 5.67627 12.5869 6.89612 10.7569C7.11163 10.4339 7.54797 10.3464 7.87134 10.5619C8.19434 10.7772 8.28168 11.2137 8.06635 11.5369C6.64764 13.6652 6.67822 15.6643 6.67822 16.4187C6.67822 16.8071 6.36328 17.1218 5.9751 17.1218ZM13.507 18.6281H10.494C10.1052 18.6281 9.79083 18.3131 9.79083 17.9249C9.79083 17.5369 10.1052 17.2218 10.494 17.2218H13.507C13.8957 17.2218 14.2101 17.5369 14.2101 17.9249C14.2101 18.3131 13.8957 18.6281 13.507 18.6281ZM16.4333 16.6412C16.3107 17.0096 15.9126 17.2083 15.5442 17.0859L13.3931 16.3687H10.6078L8.45673 17.0859C8.08832 17.2083 7.69025 17.0096 7.56757 16.6412C7.4447 16.2726 7.64337 15.8747 8.01196 15.7518L10.2713 14.9985C10.3429 14.9747 10.418 14.9625 10.494 14.9625H13.507C13.5829 14.9625 13.658 14.9747 13.7296 14.9985L15.9891 15.7518C16.3575 15.8747 16.5562 16.2726 16.4333 16.6412ZM18.026 17.1218C17.6376 17.1218 17.3229 16.8071 17.3229 16.4187C17.3229 15.6643 17.3533 13.6652 15.9346 11.5369C15.7192 11.2137 15.8066 10.7772 16.1298 10.5619C16.4529 10.3464 16.8895 10.4339 17.1048 10.7569C18.3246 12.5869 18.7291 14.4119 18.7291 16.4187C18.7291 16.8071 18.4142 17.1218 18.026 17.1218ZM19.3191 6.32538C18.718 7.04645 17.8348 7.46008 16.8962 7.46008C15.9576 7.46008 15.0745 7.04645 14.4734 6.32538C14.3681 6.19904 14.3102 6.03955 14.3102 5.87494C14.3102 5.48676 14.6252 5.172 15.0134 5.172C15.2329 5.172 15.4288 5.27252 15.5577 5.42999C15.8908 5.8266 16.3782 6.05383 16.8962 6.05383C17.4128 6.05383 17.8991 5.8277 18.232 5.43311C18.3609 5.2738 18.5581 5.172 18.7789 5.172C19.1673 5.172 19.4821 5.48676 19.4821 5.87512C19.4822 6.03973 19.4246 6.19904 19.3191 6.32538ZM20.9143 3.17688C20.74 3.52533 20.3172 3.66449 19.9709 3.49146C19.1193 3.06555 18.1729 2.92328 17.2335 3.07983L14.376 3.55609C13.9929 3.62 13.6306 3.36108 13.5667 2.97821C13.5029 2.59515 13.7617 2.23279 14.1447 2.16888L17.0024 1.69263C18.2368 1.487 19.4806 1.67413 20.5997 2.23352C20.9471 2.40729 21.0879 2.82953 20.9143 3.17688Z" fill="currentColor"/>
</svg>
