<svg viewBox="0 0 20 17" fill="none" xmlns="http://www.w3.org/2000/svg">
<path fill-rule="evenodd" clip-rule="evenodd" d="M12.747 4.29543C12.5029 4.36356 12.1027 4.56272 11.6115 4.86051L11.1722 5.12684L11.6554 5.5433C11.9212 5.77237 12.1513 5.9945 12.1666 6.03693C12.2313 6.2153 11.9999 6.41196 11.79 6.35711C11.7401 6.34406 11.467 6.13857 11.1832 5.90047L10.6672 5.46757L10.3141 5.69494C10.1198 5.82002 9.96094 5.93102 9.96094 5.94161C9.96094 5.9522 10.1623 6.13156 10.4085 6.34021C10.6547 6.54886 10.8766 6.76156 10.9016 6.81283C10.9935 7.00149 10.7686 7.21372 10.54 7.15399C10.4901 7.14094 10.2171 6.93551 9.93336 6.69744L9.4175 6.26464L9.20141 6.42156C8.92109 6.62509 8.74691 6.80884 8.60043 7.05547C8.43801 7.32887 8.38723 7.52507 8.4043 7.8128C8.42262 8.12113 8.53906 8.2893 8.81195 8.40159C8.96465 8.46441 9.09402 8.48198 9.56648 8.50389C10.1968 8.53318 10.5625 8.58823 10.9497 8.71208C11.6463 8.93494 12.1538 9.38849 12.3822 9.99229L12.4686 10.2209L12.6699 10.1717C13.2072 10.0405 14.3151 9.75226 14.6265 9.66271L14.9756 9.56231H17.4029H19.8303L19.8775 9.20538C20.0444 7.94562 20.0398 7.06178 19.8609 6.02269C19.735 5.29116 19.4178 4.40195 19.2464 4.29988C19.0785 4.19991 18.9586 4.23487 18.6917 4.46168C18.0955 4.96849 17.3345 5.25254 16.4477 5.29929C15.7677 5.33512 15.3143 5.20354 14.438 4.71595C13.7925 4.35676 13.5835 4.27966 13.2107 4.26319C13.0205 4.25479 12.8502 4.26664 12.747 4.29543ZM7.71484 7.27677C7.0691 7.62281 6.06941 7.98802 5.39508 8.12422C5.01359 8.20125 4.87594 8.20995 3.67188 8.23306C2.82359 8.24929 2.30832 8.2726 2.20703 8.29923C1.64145 8.44795 1.12586 8.81889 0.86207 9.2669C0.635859 9.65103 0.640078 9.66657 1.00586 9.79626C2.14434 10.1999 3.95047 10.5931 5.41016 10.7551C7.56781 10.9944 9.11848 10.9134 11.4513 10.4395L11.8673 10.355L11.828 10.2325C11.7034 9.84394 11.3703 9.47774 10.9811 9.30143C10.6306 9.14262 10.218 9.06496 9.55078 9.03222C8.93199 9.00184 8.70203 8.95851 8.42371 8.81985C7.92336 8.5706 7.67609 8.01322 7.80973 7.43582C7.8357 7.32352 7.85137 7.22766 7.84449 7.22278C7.83766 7.21794 7.7793 7.24221 7.71484 7.27677ZM14.5703 10.2276C12.4089 10.8449 10.08 11.2885 8.4398 11.3951C7.43969 11.4602 5.7568 11.3607 4.375 11.1548C3.35457 11.0029 1.69871 10.6065 0.862031 10.314L0.61082 10.2261L0.514687 10.3009C0.222812 10.5282 0 10.9917 0 11.3716C0 11.5818 0.0894922 11.6476 0.607617 11.8181C2.86629 12.5615 6.91891 12.9421 9.48195 12.6517C10.8808 12.4932 12.7738 12.1 14.2954 11.6518C14.4772 11.5983 14.6398 11.5545 14.6567 11.5545C14.6736 11.5545 14.6875 11.7868 14.6875 12.0706C14.6875 12.5744 14.6898 12.5888 14.7834 12.6683L14.8793 12.7498H17.3438H19.8082L19.8984 12.6732C19.9856 12.5991 19.9891 12.5735 20.006 11.9012C20.0156 11.5188 20.0138 10.9916 20.002 10.7298C19.9807 10.2591 19.9792 10.2529 19.8709 10.1737L19.7613 10.0936L17.3904 10.0964L15.0195 10.0993L14.5703 10.2276ZM0.0121094 11.3387C0.0123047 11.4482 0.0196094 11.4891 0.0283203 11.4294C0.0369922 11.3697 0.0368359 11.2801 0.0279297 11.2302C0.0189844 11.1803 0.011875 11.2291 0.0121094 11.3387Z" fill="currentColor"/>
</svg>
